<?xml version="1.0" encoding="UTF-8"?>
<svg version="1.1" xmlns="http://www.w3.org/2000/svg" width="512" height="512">
<path d="M0 0 C1.88615273 -0.01279495 1.88615273 -0.01279495 3.81040955 -0.02584839 C5.19633497 -0.02514942 6.58226029 -0.02422639 7.96818542 -0.02310181 C9.43375999 -0.02908891 10.8993314 -0.03589488 12.36489868 -0.04345703 C16.34023649 -0.06110676 20.31548817 -0.065812 24.29086137 -0.0670886 C26.77663646 -0.06851146 29.26238974 -0.07278363 31.74815941 -0.07808304 C40.42633323 -0.09658064 49.10444566 -0.10475408 57.78263855 -0.10317993 C65.8618889 -0.10197893 73.94087192 -0.12307366 82.02005464 -0.15466726 C88.96460943 -0.18085257 95.90907703 -0.19154627 102.85368079 -0.19026911 C106.99774209 -0.1897601 111.14156581 -0.19540959 115.28557777 -0.21662521 C119.18532379 -0.23604553 123.08460655 -0.23610652 126.98436928 -0.22159195 C128.41135844 -0.21950735 129.83837688 -0.22418395 131.26531601 -0.23631287 C140.19122904 -0.30723676 146.78898485 -0.02049142 153.78141785 6.01351929 C154.45044128 6.85076538 154.45044128 6.85076538 155.13298035 7.70492554 C155.82520691 8.53830444 155.82520691 8.53830444 156.53141785 9.38851929 C160.2647284 15.10738035 160.61177456 20.63530909 159.75798035 27.26742554 C158.17217884 33.03638154 156.03257592 38.56381025 153.88298035 44.14242554 C153.23153718 45.87334257 152.5817803 47.60489498 151.93351746 49.33700562 C150.4416972 53.31185732 148.93782508 57.28190717 147.42643738 61.24935913 C144.34705831 69.33698479 141.30088569 77.43702247 138.2540741 85.53695679 C137.10110274 88.60164276 135.9479488 91.66625995 134.79460144 94.73080444 C134.50699574 95.49500828 134.21939003 96.25921211 133.923069 97.04657364 C131.66223051 103.05180674 129.39357912 109.05406406 127.12256241 115.05545425 C125.03339804 120.57809425 122.95441725 126.10451218 120.88047409 131.63288498 C119.32599905 135.77195752 117.74768049 139.90131239 116.15983582 144.02767944 C115.40945386 146.00973242 114.6595762 147.99197643 113.9103241 149.97445679 C113.56852615 150.84575729 113.22672821 151.7170578 112.87457275 152.61476135 C111.16048101 157.20391004 110.22169033 160.4067502 111.75798035 165.26742554 C114.19800228 168.38055697 115.92166334 169.5885143 119.75798035 170.26742554 C121.94628671 170.35802972 124.13713521 170.3925386 126.32731628 170.3934021 C127.30378113 170.3962043 127.30378113 170.3962043 128.29997253 170.39906311 C129.70987809 170.40305732 131.11979007 170.40514105 132.52970123 170.40552521 C135.53603695 170.40895638 138.54215943 170.43034022 141.54841995 170.45075607 C147.13946112 170.48867986 152.73027224 170.52004504 158.32145691 170.51791382 C162.21674818 170.5171237 166.1112541 170.5406157 170.00634003 170.57979584 C171.4845501 170.59021113 172.96285131 170.59181294 174.44107819 170.58414459 C183.75712866 170.54064679 190.27941196 171.14649795 197.26329041 177.67446899 C201.38979453 182.09702373 202.46991256 186.72282673 203.13298035 192.57992554 C202.26666428 201.09870023 197.84546646 208.20529656 193.0431366 215.10336304 C192.48440353 215.92333771 191.92567047 216.74331238 191.3500061 217.58813477 C190.14501509 219.35478262 188.93582428 221.11857193 187.7228241 222.87973022 C184.42437532 227.66993125 181.15796134 232.48194758 177.8868866 237.29086304 C177.21029999 238.28374329 176.53371338 239.27662354 175.83662415 240.29959106 C168.86297608 250.54758799 162.05446329 260.90147482 155.25798035 271.26742554 C145.10257864 286.73936463 134.82070971 302.11940693 124.44548035 317.44467163 C115.28108642 330.98634747 106.23317763 344.59969607 97.25798035 358.26742554 C86.44932142 374.72532366 75.51648259 391.09367251 64.47038269 407.39315796 C58.39180681 416.36737667 52.35616099 425.3659863 46.4025116 434.42367554 C45.21016198 436.23258895 44.01769964 438.04142808 42.82511902 439.85018921 C40.58605563 443.24673286 38.36047529 446.65159126 36.14201355 450.06161499 C35.13172741 451.59541638 34.12093207 453.12888254 33.10954285 454.66195679 C32.66911148 455.34741577 32.22868011 456.03287476 31.77490234 456.73910522 C27.84046014 462.65858349 22.84296888 468.34881527 15.75798035 470.26742554 C8.58923523 471.18896826 2.72274916 470.43868756 -3.24201965 466.26742554 C-7.85261022 462.37403795 -10.8278654 458.2910717 -11.6605072 452.21214294 C-11.63012174 438.70107766 -9.71768063 425.40249134 -7.94529104 412.02871966 C-7.48158426 408.50715357 -7.03180973 404.98381284 -6.5811615 401.46055603 C-5.24355775 391.02214717 -3.88644412 380.58628867 -2.52168274 370.15139771 C-1.45649856 362.00613143 -0.39755661 353.86016732 0.64163005 345.7115379 C1.17534821 341.53202771 1.72214325 337.35450929 2.27907968 333.17803276 C2.70282333 329.97287361 3.10806611 326.76536509 3.51628113 323.55819702 C3.75148468 321.8383107 3.75148468 321.8383107 3.99143982 320.0836792 C4.80028049 313.56085323 5.39346712 308.03240664 1.44548035 302.39242554 C-2.69787133 299.63019109 -7.94895247 300.12682414 -12.75105286 300.14144897 C-13.48995758 300.13958084 -14.2288623 300.13771271 -14.99015808 300.13578796 C-16.58884649 300.13179661 -18.18754056 300.12971029 -19.7862339 300.12932587 C-23.19347941 300.12589312 -26.60053701 300.10450984 -30.00771618 300.084095 C-36.34357438 300.0461685 -42.67922812 300.0148088 -49.01521301 300.01693726 C-53.43032723 300.0177265 -57.84474707 299.99427383 -62.25967979 299.95505524 C-63.93606122 299.94462901 -65.61252311 299.94304624 -67.28891945 299.95070648 C-77.04310806 299.99083262 -84.39645738 299.89710751 -91.73977661 292.82498169 C-96.34172884 287.82936596 -97.44997664 283.04318571 -97.38053894 276.39535522 C-97.16323096 273.05707563 -96.29427086 270.03402474 -95.3553009 266.82992554 C-95.1467749 266.1072348 -94.9382489 265.38454407 -94.72340393 264.63995361 C-94.01057738 262.17937129 -93.28242117 259.72358713 -92.55451965 257.26742554 C-92.02353301 255.44625257 -91.49354338 253.62478868 -90.96443176 251.80307007 C-89.75643606 247.65167938 -88.54145129 243.5024082 -87.32209778 239.3543396 C-85.2463313 232.2896996 -83.18721242 225.22027757 -81.13038063 218.15010834 C-77.36428941 205.20513511 -73.58937468 192.26275396 -69.8084259 179.32211304 C-65.75161875 165.43707923 -61.69783849 151.55116851 -57.64875793 137.66387939 C-57.21353909 136.17121305 -56.77831774 134.67854744 -56.34309387 133.18588257 C-56.12807095 132.44841986 -55.91304802 131.71095715 -55.69150925 130.95114708 C-54.18127984 125.77214201 -52.66923822 120.59366808 -51.15657043 115.41537476 C-50.29035799 112.44943963 -49.42432075 109.4834534 -48.5584259 106.51742554 C-48.34387756 105.78253025 -48.12932922 105.04763496 -47.90827942 104.29047012 C-44.87783551 93.9072095 -41.86694386 83.51842587 -38.86869812 73.12582397 C-37.17696912 67.26221945 -35.4802251 61.40006947 -33.78236198 55.53823853 C-32.39843352 50.75849927 -31.02122719 45.97689134 -29.64908504 41.1937561 C-28.80064316 38.24231724 -27.94573765 35.29277937 -27.08906746 32.34371948 C-26.69497432 30.98212919 -26.30354619 29.61976411 -25.91506767 28.25656128 C-20.56479169 9.4953219 -20.56479169 9.4953219 -14.80451965 4.89242554 C-14.24893372 4.43094116 -13.69334778 3.96945679 -13.1209259 3.49398804 C-8.8227377 0.68810218 -5.08966638 0.01563391 0 0 Z " fill="#4072EB" transform="translate(203.2420196533203,20.732574462890625)"/>
</svg>
